<svg xmlns="http://www.w3.org/2000/svg" width="1600" height="900" viewBox="0 0 1600 900" fill="none">
  <rect width="1600" height="900" fill="#101010"/>
  <g opacity="0.35">
    <rect x="120" y="80" width="210" height="210" fill="#252525"/>
    <rect x="380" y="120" width="140" height="140" fill="#1a1a1a"/>
    <rect x="560" y="70" width="260" height="260" fill="#2a2a2a"/>
    <rect x="900" y="130" width="170" height="170" fill="#181818"/>
    <rect x="1120" y="90" width="280" height="280" fill="#232323"/>
    <rect x="210" y="360" width="180" height="180" fill="#1f1f1f"/>
    <rect x="440" y="340" width="300" height="300" fill="#2b2b2b"/>
    <rect x="780" y="360" width="220" height="220" fill="#1c1c1c"/>
    <rect x="1060" y="380" width="140" height="140" fill="#2e2e2e"/>
    <rect x="1230" y="360" width="240" height="240" fill="#171717"/>
    <rect x="90" y="620" width="250" height="250" fill="#262626"/>
    <rect x="390" y="680" width="130" height="130" fill="#1a1a1a"/>
    <rect x="560" y="650" width="280" height="240" fill="#212121"/>
    <rect x="900" y="640" width="180" height="180" fill="#2d2d2d"/>
    <rect x="1130" y="640" width="320" height="220" fill="#1f1f1f"/>
  </g>
</svg>
